# xmcd
# 
# Track frame offsets:
#     150
#     30132
#     46335
# 
# Disc length: 851
# 
# Revision: 5
# Processed by: cddbd v1.5.2PL0 Copyright (c) Steve Scherf et al.
# Submitted via: fre:ac v1.0.17
# 
DISCID=15035103
DTITLE=ZUN - 東方儚月抄　～ Silent Sinner in Blue.
DYEAR=2008
DGENRE=Soundtrack
TTITLE0=妖怪宇宙旅行
TTITLE1=綿月のスペルカード　～ Lunatic Blue
TTITLE2=呑んべぇのレムリア (Retro Ver)
EXTD=YEAR: 2008
EXTT0=
EXTT1=
EXTT2=
PLAYORDER=
